<mxfile host="app.diagrams.net" modified="2023-10-31T08:26:52.808Z" agent="Mozilla/5.0 (Windows NT 10.0; Win64; x64) AppleWebKit/537.36 (KHTML, like Gecko) Chrome/118.0.0.0 Safari/537.36" etag="zQyswgAAMKX0zSTzQvTD" version="22.0.8" type="github">
  <diagram name="第 1 页" id="qCt2_IeTUX2xMLSXx4s5">
    <mxGraphModel dx="1434" dy="758" grid="1" gridSize="10" guides="1" tooltips="1" connect="1" arrows="1" fold="1" page="1" pageScale="1" pageWidth="827" pageHeight="1169" math="0" shadow="0">
      <root>
        <mxCell id="0" />
        <mxCell id="1" parent="0" />
        <mxCell id="UJVMYoUxDZK4msPOj0UV-1" value="Operator" style="swimlane;fontStyle=1;align=center;verticalAlign=top;childLayout=stackLayout;horizontal=1;startSize=26;horizontalStack=0;resizeParent=1;resizeParentMax=0;resizeLast=0;collapsible=1;marginBottom=0;whiteSpace=wrap;html=1;" parent="1" vertex="1">
          <mxGeometry x="90" y="270" width="120" height="294" as="geometry" />
        </mxCell>
        <mxCell id="UJVMYoUxDZK4msPOj0UV-2" value="+ userlD: int" style="text;strokeColor=none;fillColor=none;align=left;verticalAlign=top;spacingLeft=4;spacingRight=4;overflow=hidden;rotatable=0;points=[[0,0.5],[1,0.5]];portConstraint=eastwest;whiteSpace=wrap;html=1;" parent="UJVMYoUxDZK4msPOj0UV-1" vertex="1">
          <mxGeometry y="26" width="120" height="26" as="geometry" />
        </mxCell>
        <mxCell id="UJVMYoUxDZK4msPOj0UV-5" value="+ password: int" style="text;strokeColor=none;fillColor=none;align=left;verticalAlign=top;spacingLeft=4;spacingRight=4;overflow=hidden;rotatable=0;points=[[0,0.5],[1,0.5]];portConstraint=eastwest;whiteSpace=wrap;html=1;" parent="UJVMYoUxDZK4msPOj0UV-1" vertex="1">
          <mxGeometry y="52" width="120" height="26" as="geometry" />
        </mxCell>
        <mxCell id="UJVMYoUxDZK4msPOj0UV-6" value="+ UserName: string" style="text;strokeColor=none;fillColor=none;align=left;verticalAlign=top;spacingLeft=4;spacingRight=4;overflow=hidden;rotatable=0;points=[[0,0.5],[1,0.5]];portConstraint=eastwest;whiteSpace=wrap;html=1;" parent="UJVMYoUxDZK4msPOj0UV-1" vertex="1">
          <mxGeometry y="78" width="120" height="26" as="geometry" />
        </mxCell>
        <mxCell id="UJVMYoUxDZK4msPOj0UV-3" value="" style="line;strokeWidth=1;fillColor=none;align=left;verticalAlign=middle;spacingTop=-1;spacingLeft=3;spacingRight=3;rotatable=0;labelPosition=right;points=[];portConstraint=eastwest;strokeColor=inherit;" parent="UJVMYoUxDZK4msPOj0UV-1" vertex="1">
          <mxGeometry y="104" width="120" height="8" as="geometry" />
        </mxCell>
        <mxCell id="UJVMYoUxDZK4msPOj0UV-4" value="+ line()" style="text;strokeColor=none;fillColor=none;align=left;verticalAlign=top;spacingLeft=4;spacingRight=4;overflow=hidden;rotatable=0;points=[[0,0.5],[1,0.5]];portConstraint=eastwest;whiteSpace=wrap;html=1;" parent="UJVMYoUxDZK4msPOj0UV-1" vertex="1">
          <mxGeometry y="112" width="120" height="26" as="geometry" />
        </mxCell>
        <mxCell id="UJVMYoUxDZK4msPOj0UV-7" value="+ outline()" style="text;strokeColor=none;fillColor=none;align=left;verticalAlign=top;spacingLeft=4;spacingRight=4;overflow=hidden;rotatable=0;points=[[0,0.5],[1,0.5]];portConstraint=eastwest;whiteSpace=wrap;html=1;" parent="UJVMYoUxDZK4msPOj0UV-1" vertex="1">
          <mxGeometry y="138" width="120" height="26" as="geometry" />
        </mxCell>
        <mxCell id="UJVMYoUxDZK4msPOj0UV-8" value="+ register()" style="whiteSpace=wrap;html=1;align=left;verticalAlign=top;fillColor=none;strokeColor=none;gradientColor=none;spacingLeft=4;spacingRight=4;" parent="UJVMYoUxDZK4msPOj0UV-1" vertex="1">
          <mxGeometry y="164" width="120" height="26" as="geometry" />
        </mxCell>
        <mxCell id="UJVMYoUxDZK4msPOj0UV-9" value="+ recharge()" style="whiteSpace=wrap;html=1;align=left;verticalAlign=top;fillColor=none;strokeColor=none;gradientColor=none;spacingLeft=4;spacingRight=4;" parent="UJVMYoUxDZK4msPOj0UV-1" vertex="1">
          <mxGeometry y="190" width="120" height="26" as="geometry" />
        </mxCell>
        <mxCell id="UJVMYoUxDZK4msPOj0UV-10" value="+ cancelcard()" style="whiteSpace=wrap;html=1;align=left;verticalAlign=top;fillColor=none;strokeColor=none;gradientColor=none;spacingLeft=4;spacingRight=4;" parent="UJVMYoUxDZK4msPOj0UV-1" vertex="1">
          <mxGeometry y="216" width="120" height="26" as="geometry" />
        </mxCell>
        <mxCell id="UJVMYoUxDZK4msPOj0UV-11" value="+ modify()" style="whiteSpace=wrap;html=1;align=left;verticalAlign=top;fillColor=none;strokeColor=none;gradientColor=none;spacingLeft=4;spacingRight=4;" parent="UJVMYoUxDZK4msPOj0UV-1" vertex="1">
          <mxGeometry y="242" width="120" height="26" as="geometry" />
        </mxCell>
        <mxCell id="UJVMYoUxDZK4msPOj0UV-12" value="+ select()" style="whiteSpace=wrap;html=1;align=left;verticalAlign=top;fillColor=none;strokeColor=none;gradientColor=none;spacingLeft=4;spacingRight=4;" parent="UJVMYoUxDZK4msPOj0UV-1" vertex="1">
          <mxGeometry y="268" width="120" height="26" as="geometry" />
        </mxCell>
        <mxCell id="UJVMYoUxDZK4msPOj0UV-13" value="Administrator" style="swimlane;fontStyle=1;align=center;verticalAlign=top;childLayout=stackLayout;horizontal=1;startSize=26;horizontalStack=0;resizeParent=1;resizeParentMax=0;resizeLast=0;collapsible=1;marginBottom=0;whiteSpace=wrap;html=1;" parent="1" vertex="1">
          <mxGeometry x="260" y="10" width="120" height="424" as="geometry" />
        </mxCell>
        <mxCell id="UJVMYoUxDZK4msPOj0UV-14" value="+ userlD: int" style="text;strokeColor=none;fillColor=none;align=left;verticalAlign=top;spacingLeft=4;spacingRight=4;overflow=hidden;rotatable=0;points=[[0,0.5],[1,0.5]];portConstraint=eastwest;whiteSpace=wrap;html=1;" parent="UJVMYoUxDZK4msPOj0UV-13" vertex="1">
          <mxGeometry y="26" width="120" height="26" as="geometry" />
        </mxCell>
        <mxCell id="UJVMYoUxDZK4msPOj0UV-17" value="+ password: int" style="text;strokeColor=none;fillColor=none;align=left;verticalAlign=top;spacingLeft=4;spacingRight=4;overflow=hidden;rotatable=0;points=[[0,0.5],[1,0.5]];portConstraint=eastwest;whiteSpace=wrap;html=1;" parent="UJVMYoUxDZK4msPOj0UV-13" vertex="1">
          <mxGeometry y="52" width="120" height="26" as="geometry" />
        </mxCell>
        <mxCell id="UJVMYoUxDZK4msPOj0UV-18" value="+ UserName: string" style="text;strokeColor=none;fillColor=none;align=left;verticalAlign=top;spacingLeft=4;spacingRight=4;overflow=hidden;rotatable=0;points=[[0,0.5],[1,0.5]];portConstraint=eastwest;whiteSpace=wrap;html=1;" parent="UJVMYoUxDZK4msPOj0UV-13" vertex="1">
          <mxGeometry y="78" width="120" height="26" as="geometry" />
        </mxCell>
        <mxCell id="UJVMYoUxDZK4msPOj0UV-15" value="" style="line;strokeWidth=1;fillColor=none;align=left;verticalAlign=middle;spacingTop=-1;spacingLeft=3;spacingRight=3;rotatable=0;labelPosition=right;points=[];portConstraint=eastwest;strokeColor=inherit;" parent="UJVMYoUxDZK4msPOj0UV-13" vertex="1">
          <mxGeometry y="104" width="120" height="8" as="geometry" />
        </mxCell>
        <mxCell id="UJVMYoUxDZK4msPOj0UV-16" value="+ line()" style="text;strokeColor=none;fillColor=none;align=left;verticalAlign=top;spacingLeft=4;spacingRight=4;overflow=hidden;rotatable=0;points=[[0,0.5],[1,0.5]];portConstraint=eastwest;whiteSpace=wrap;html=1;" parent="UJVMYoUxDZK4msPOj0UV-13" vertex="1">
          <mxGeometry y="112" width="120" height="26" as="geometry" />
        </mxCell>
        <mxCell id="UJVMYoUxDZK4msPOj0UV-22" value="+ outline()" style="text;strokeColor=none;fillColor=none;align=left;verticalAlign=top;spacingLeft=4;spacingRight=4;overflow=hidden;rotatable=0;points=[[0,0.5],[1,0.5]];portConstraint=eastwest;whiteSpace=wrap;html=1;" parent="UJVMYoUxDZK4msPOj0UV-13" vertex="1">
          <mxGeometry y="138" width="120" height="26" as="geometry" />
        </mxCell>
        <mxCell id="UJVMYoUxDZK4msPOj0UV-23" value="+ cancelcard()" style="text;strokeColor=none;fillColor=none;align=left;verticalAlign=top;spacingLeft=4;spacingRight=4;overflow=hidden;rotatable=0;points=[[0,0.5],[1,0.5]];portConstraint=eastwest;whiteSpace=wrap;html=1;" parent="UJVMYoUxDZK4msPOj0UV-13" vertex="1">
          <mxGeometry y="164" width="120" height="26" as="geometry" />
        </mxCell>
        <mxCell id="UJVMYoUxDZK4msPOj0UV-24" value="+ add()" style="text;strokeColor=none;fillColor=none;align=left;verticalAlign=top;spacingLeft=4;spacingRight=4;overflow=hidden;rotatable=0;points=[[0,0.5],[1,0.5]];portConstraint=eastwest;whiteSpace=wrap;html=1;" parent="UJVMYoUxDZK4msPOj0UV-13" vertex="1">
          <mxGeometry y="190" width="120" height="26" as="geometry" />
        </mxCell>
        <mxCell id="UJVMYoUxDZK4msPOj0UV-25" value="+ delete()" style="text;strokeColor=none;fillColor=none;align=left;verticalAlign=top;spacingLeft=4;spacingRight=4;overflow=hidden;rotatable=0;points=[[0,0.5],[1,0.5]];portConstraint=eastwest;whiteSpace=wrap;html=1;" parent="UJVMYoUxDZK4msPOj0UV-13" vertex="1">
          <mxGeometry y="216" width="120" height="26" as="geometry" />
        </mxCell>
        <mxCell id="UJVMYoUxDZK4msPOj0UV-20" value="+ modify()" style="text;strokeColor=none;fillColor=none;align=left;verticalAlign=top;spacingLeft=4;spacingRight=4;overflow=hidden;rotatable=0;points=[[0,0.5],[1,0.5]];portConstraint=eastwest;whiteSpace=wrap;html=1;" parent="UJVMYoUxDZK4msPOj0UV-13" vertex="1">
          <mxGeometry y="242" width="120" height="26" as="geometry" />
        </mxCell>
        <mxCell id="UJVMYoUxDZK4msPOj0UV-26" value="+ select()" style="text;strokeColor=none;fillColor=none;align=left;verticalAlign=top;spacingLeft=4;spacingRight=4;overflow=hidden;rotatable=0;points=[[0,0.5],[1,0.5]];portConstraint=eastwest;whiteSpace=wrap;html=1;" parent="UJVMYoUxDZK4msPOj0UV-13" vertex="1">
          <mxGeometry y="268" width="120" height="26" as="geometry" />
        </mxCell>
        <mxCell id="UJVMYoUxDZK4msPOj0UV-27" value="+ exit()" style="text;strokeColor=none;fillColor=none;align=left;verticalAlign=top;spacingLeft=4;spacingRight=4;overflow=hidden;rotatable=0;points=[[0,0.5],[1,0.5]];portConstraint=eastwest;whiteSpace=wrap;html=1;" parent="UJVMYoUxDZK4msPOj0UV-13" vertex="1">
          <mxGeometry y="294" width="120" height="26" as="geometry" />
        </mxCell>
        <mxCell id="UJVMYoUxDZK4msPOj0UV-21" value="+ register()" style="text;strokeColor=none;fillColor=none;align=left;verticalAlign=top;spacingLeft=4;spacingRight=4;overflow=hidden;rotatable=0;points=[[0,0.5],[1,0.5]];portConstraint=eastwest;whiteSpace=wrap;html=1;" parent="UJVMYoUxDZK4msPOj0UV-13" vertex="1">
          <mxGeometry y="320" width="120" height="26" as="geometry" />
        </mxCell>
        <mxCell id="UJVMYoUxDZK4msPOj0UV-28" value="+ recharge()" style="text;strokeColor=none;fillColor=none;align=left;verticalAlign=top;spacingLeft=4;spacingRight=4;overflow=hidden;rotatable=0;points=[[0,0.5],[1,0.5]];portConstraint=eastwest;whiteSpace=wrap;html=1;" parent="UJVMYoUxDZK4msPOj0UV-13" vertex="1">
          <mxGeometry y="346" width="120" height="26" as="geometry" />
        </mxCell>
        <mxCell id="UJVMYoUxDZK4msPOj0UV-29" value="+ account()" style="text;strokeColor=none;fillColor=none;align=left;verticalAlign=top;spacingLeft=4;spacingRight=4;overflow=hidden;rotatable=0;points=[[0,0.5],[1,0.5]];portConstraint=eastwest;whiteSpace=wrap;html=1;" parent="UJVMYoUxDZK4msPOj0UV-13" vertex="1">
          <mxGeometry y="372" width="120" height="26" as="geometry" />
        </mxCell>
        <mxCell id="UJVMYoUxDZK4msPOj0UV-30" value="+ print()" style="text;strokeColor=none;fillColor=none;align=left;verticalAlign=top;spacingLeft=4;spacingRight=4;overflow=hidden;rotatable=0;points=[[0,0.5],[1,0.5]];portConstraint=eastwest;whiteSpace=wrap;html=1;" parent="UJVMYoUxDZK4msPOj0UV-13" vertex="1">
          <mxGeometry y="398" width="120" height="26" as="geometry" />
        </mxCell>
        <mxCell id="UJVMYoUxDZK4msPOj0UV-31" value="GeneralUser" style="swimlane;fontStyle=1;align=center;verticalAlign=top;childLayout=stackLayout;horizontal=1;startSize=26;horizontalStack=0;resizeParent=1;resizeParentMax=0;resizeLast=0;collapsible=1;marginBottom=0;whiteSpace=wrap;html=1;" parent="1" vertex="1">
          <mxGeometry x="260" y="500" width="120" height="242" as="geometry" />
        </mxCell>
        <mxCell id="UJVMYoUxDZK4msPOj0UV-32" value="+ userlD: int" style="text;strokeColor=none;fillColor=none;align=left;verticalAlign=top;spacingLeft=4;spacingRight=4;overflow=hidden;rotatable=0;points=[[0,0.5],[1,0.5]];portConstraint=eastwest;whiteSpace=wrap;html=1;" parent="UJVMYoUxDZK4msPOj0UV-31" vertex="1">
          <mxGeometry y="26" width="120" height="26" as="geometry" />
        </mxCell>
        <mxCell id="UJVMYoUxDZK4msPOj0UV-35" value="+ password: int" style="text;strokeColor=none;fillColor=none;align=left;verticalAlign=top;spacingLeft=4;spacingRight=4;overflow=hidden;rotatable=0;points=[[0,0.5],[1,0.5]];portConstraint=eastwest;whiteSpace=wrap;html=1;" parent="UJVMYoUxDZK4msPOj0UV-31" vertex="1">
          <mxGeometry y="52" width="120" height="26" as="geometry" />
        </mxCell>
        <mxCell id="UJVMYoUxDZK4msPOj0UV-36" value="+ UserName: string" style="text;strokeColor=none;fillColor=none;align=left;verticalAlign=top;spacingLeft=4;spacingRight=4;overflow=hidden;rotatable=0;points=[[0,0.5],[1,0.5]];portConstraint=eastwest;whiteSpace=wrap;html=1;" parent="UJVMYoUxDZK4msPOj0UV-31" vertex="1">
          <mxGeometry y="78" width="120" height="26" as="geometry" />
        </mxCell>
        <mxCell id="UJVMYoUxDZK4msPOj0UV-33" value="" style="line;strokeWidth=1;fillColor=none;align=left;verticalAlign=middle;spacingTop=-1;spacingLeft=3;spacingRight=3;rotatable=0;labelPosition=right;points=[];portConstraint=eastwest;strokeColor=inherit;" parent="UJVMYoUxDZK4msPOj0UV-31" vertex="1">
          <mxGeometry y="104" width="120" height="8" as="geometry" />
        </mxCell>
        <mxCell id="UJVMYoUxDZK4msPOj0UV-34" value="+ line()" style="text;strokeColor=none;fillColor=none;align=left;verticalAlign=top;spacingLeft=4;spacingRight=4;overflow=hidden;rotatable=0;points=[[0,0.5],[1,0.5]];portConstraint=eastwest;whiteSpace=wrap;html=1;" parent="UJVMYoUxDZK4msPOj0UV-31" vertex="1">
          <mxGeometry y="112" width="120" height="26" as="geometry" />
        </mxCell>
        <mxCell id="UJVMYoUxDZK4msPOj0UV-37" value="+ outline()" style="text;strokeColor=none;fillColor=none;align=left;verticalAlign=top;spacingLeft=4;spacingRight=4;overflow=hidden;rotatable=0;points=[[0,0.5],[1,0.5]];portConstraint=eastwest;whiteSpace=wrap;html=1;" parent="UJVMYoUxDZK4msPOj0UV-31" vertex="1">
          <mxGeometry y="138" width="120" height="26" as="geometry" />
        </mxCell>
        <mxCell id="UJVMYoUxDZK4msPOj0UV-38" value="+ select()" style="text;strokeColor=none;fillColor=none;align=left;verticalAlign=top;spacingLeft=4;spacingRight=4;overflow=hidden;rotatable=0;points=[[0,0.5],[1,0.5]];portConstraint=eastwest;whiteSpace=wrap;html=1;" parent="UJVMYoUxDZK4msPOj0UV-31" vertex="1">
          <mxGeometry y="164" width="120" height="26" as="geometry" />
        </mxCell>
        <mxCell id="UJVMYoUxDZK4msPOj0UV-39" value="+ modify()" style="text;strokeColor=none;fillColor=none;align=left;verticalAlign=top;spacingLeft=4;spacingRight=4;overflow=hidden;rotatable=0;points=[[0,0.5],[1,0.5]];portConstraint=eastwest;whiteSpace=wrap;html=1;" parent="UJVMYoUxDZK4msPOj0UV-31" vertex="1">
          <mxGeometry y="190" width="120" height="26" as="geometry" />
        </mxCell>
        <mxCell id="UJVMYoUxDZK4msPOj0UV-40" value="+ exit()" style="text;strokeColor=none;fillColor=none;align=left;verticalAlign=top;spacingLeft=4;spacingRight=4;overflow=hidden;rotatable=0;points=[[0,0.5],[1,0.5]];portConstraint=eastwest;whiteSpace=wrap;html=1;" parent="UJVMYoUxDZK4msPOj0UV-31" vertex="1">
          <mxGeometry y="216" width="120" height="26" as="geometry" />
        </mxCell>
        <mxCell id="UJVMYoUxDZK4msPOj0UV-41" value="WorkerRecords" style="shape=folder;fontStyle=1;spacingTop=10;tabWidth=40;tabHeight=14;tabPosition=left;html=1;whiteSpace=wrap;" parent="1" vertex="1">
          <mxGeometry x="540" y="24" width="100" height="50" as="geometry" />
        </mxCell>
        <mxCell id="UJVMYoUxDZK4msPOj0UV-45" value="Worker" style="swimlane;fontStyle=1;align=center;verticalAlign=top;childLayout=stackLayout;horizontal=1;startSize=26;horizontalStack=0;resizeParent=1;resizeParentMax=0;resizeLast=0;collapsible=1;marginBottom=0;whiteSpace=wrap;html=1;" parent="1" vertex="1">
          <mxGeometry x="530" y="210" width="120" height="450" as="geometry" />
        </mxCell>
        <mxCell id="UJVMYoUxDZK4msPOj0UV-46" value="+ userlD: int" style="text;strokeColor=none;fillColor=none;align=left;verticalAlign=top;spacingLeft=4;spacingRight=4;overflow=hidden;rotatable=0;points=[[0,0.5],[1,0.5]];portConstraint=eastwest;whiteSpace=wrap;html=1;" parent="UJVMYoUxDZK4msPOj0UV-45" vertex="1">
          <mxGeometry y="26" width="120" height="26" as="geometry" />
        </mxCell>
        <mxCell id="UJVMYoUxDZK4msPOj0UV-49" value="+ password: int" style="text;strokeColor=none;fillColor=none;align=left;verticalAlign=top;spacingLeft=4;spacingRight=4;overflow=hidden;rotatable=0;points=[[0,0.5],[1,0.5]];portConstraint=eastwest;whiteSpace=wrap;html=1;" parent="UJVMYoUxDZK4msPOj0UV-45" vertex="1">
          <mxGeometry y="52" width="120" height="26" as="geometry" />
        </mxCell>
        <mxCell id="UJVMYoUxDZK4msPOj0UV-50" value="+ level: string" style="text;strokeColor=none;fillColor=none;align=left;verticalAlign=top;spacingLeft=4;spacingRight=4;overflow=hidden;rotatable=0;points=[[0,0.5],[1,0.5]];portConstraint=eastwest;whiteSpace=wrap;html=1;" parent="UJVMYoUxDZK4msPOj0UV-45" vertex="1">
          <mxGeometry y="78" width="120" height="26" as="geometry" />
        </mxCell>
        <mxCell id="UJVMYoUxDZK4msPOj0UV-51" value="+ UserName: string" style="text;strokeColor=none;fillColor=none;align=left;verticalAlign=top;spacingLeft=4;spacingRight=4;overflow=hidden;rotatable=0;points=[[0,0.5],[1,0.5]];portConstraint=eastwest;whiteSpace=wrap;html=1;" parent="UJVMYoUxDZK4msPOj0UV-45" vertex="1">
          <mxGeometry y="104" width="120" height="26" as="geometry" />
        </mxCell>
        <mxCell id="UJVMYoUxDZK4msPOj0UV-47" value="" style="line;strokeWidth=1;fillColor=none;align=left;verticalAlign=middle;spacingTop=-1;spacingLeft=3;spacingRight=3;rotatable=0;labelPosition=right;points=[];portConstraint=eastwest;strokeColor=inherit;" parent="UJVMYoUxDZK4msPOj0UV-45" vertex="1">
          <mxGeometry y="130" width="120" height="8" as="geometry" />
        </mxCell>
        <mxCell id="UJVMYoUxDZK4msPOj0UV-48" value="+ line()" style="text;strokeColor=none;fillColor=none;align=left;verticalAlign=top;spacingLeft=4;spacingRight=4;overflow=hidden;rotatable=0;points=[[0,0.5],[1,0.5]];portConstraint=eastwest;whiteSpace=wrap;html=1;" parent="UJVMYoUxDZK4msPOj0UV-45" vertex="1">
          <mxGeometry y="138" width="120" height="26" as="geometry" />
        </mxCell>
        <mxCell id="UJVMYoUxDZK4msPOj0UV-52" value="+ outline()" style="text;strokeColor=none;fillColor=none;align=left;verticalAlign=top;spacingLeft=4;spacingRight=4;overflow=hidden;rotatable=0;points=[[0,0.5],[1,0.5]];portConstraint=eastwest;whiteSpace=wrap;html=1;" parent="UJVMYoUxDZK4msPOj0UV-45" vertex="1">
          <mxGeometry y="164" width="120" height="26" as="geometry" />
        </mxCell>
        <mxCell id="UJVMYoUxDZK4msPOj0UV-53" value="+ cancelcard()" style="text;strokeColor=none;fillColor=none;align=left;verticalAlign=top;spacingLeft=4;spacingRight=4;overflow=hidden;rotatable=0;points=[[0,0.5],[1,0.5]];portConstraint=eastwest;whiteSpace=wrap;html=1;" parent="UJVMYoUxDZK4msPOj0UV-45" vertex="1">
          <mxGeometry y="190" width="120" height="26" as="geometry" />
        </mxCell>
        <mxCell id="UJVMYoUxDZK4msPOj0UV-54" value="+ add()" style="text;strokeColor=none;fillColor=none;align=left;verticalAlign=top;spacingLeft=4;spacingRight=4;overflow=hidden;rotatable=0;points=[[0,0.5],[1,0.5]];portConstraint=eastwest;whiteSpace=wrap;html=1;" parent="UJVMYoUxDZK4msPOj0UV-45" vertex="1">
          <mxGeometry y="216" width="120" height="26" as="geometry" />
        </mxCell>
        <mxCell id="UJVMYoUxDZK4msPOj0UV-55" value="+ delete()" style="text;strokeColor=none;fillColor=none;align=left;verticalAlign=top;spacingLeft=4;spacingRight=4;overflow=hidden;rotatable=0;points=[[0,0.5],[1,0.5]];portConstraint=eastwest;whiteSpace=wrap;html=1;" parent="UJVMYoUxDZK4msPOj0UV-45" vertex="1">
          <mxGeometry y="242" width="120" height="26" as="geometry" />
        </mxCell>
        <mxCell id="UJVMYoUxDZK4msPOj0UV-56" value="+ modify()" style="text;strokeColor=none;fillColor=none;align=left;verticalAlign=top;spacingLeft=4;spacingRight=4;overflow=hidden;rotatable=0;points=[[0,0.5],[1,0.5]];portConstraint=eastwest;whiteSpace=wrap;html=1;" parent="UJVMYoUxDZK4msPOj0UV-45" vertex="1">
          <mxGeometry y="268" width="120" height="26" as="geometry" />
        </mxCell>
        <mxCell id="UJVMYoUxDZK4msPOj0UV-57" value="+ select()" style="text;strokeColor=none;fillColor=none;align=left;verticalAlign=top;spacingLeft=4;spacingRight=4;overflow=hidden;rotatable=0;points=[[0,0.5],[1,0.5]];portConstraint=eastwest;whiteSpace=wrap;html=1;" parent="UJVMYoUxDZK4msPOj0UV-45" vertex="1">
          <mxGeometry y="294" width="120" height="26" as="geometry" />
        </mxCell>
        <mxCell id="UJVMYoUxDZK4msPOj0UV-58" value="+ exit()" style="text;strokeColor=none;fillColor=none;align=left;verticalAlign=top;spacingLeft=4;spacingRight=4;overflow=hidden;rotatable=0;points=[[0,0.5],[1,0.5]];portConstraint=eastwest;whiteSpace=wrap;html=1;" parent="UJVMYoUxDZK4msPOj0UV-45" vertex="1">
          <mxGeometry y="320" width="120" height="26" as="geometry" />
        </mxCell>
        <mxCell id="UJVMYoUxDZK4msPOj0UV-59" value="+ register()" style="text;strokeColor=none;fillColor=none;align=left;verticalAlign=top;spacingLeft=4;spacingRight=4;overflow=hidden;rotatable=0;points=[[0,0.5],[1,0.5]];portConstraint=eastwest;whiteSpace=wrap;html=1;" parent="UJVMYoUxDZK4msPOj0UV-45" vertex="1">
          <mxGeometry y="346" width="120" height="26" as="geometry" />
        </mxCell>
        <mxCell id="UJVMYoUxDZK4msPOj0UV-60" value="+ recharge()" style="text;strokeColor=none;fillColor=none;align=left;verticalAlign=top;spacingLeft=4;spacingRight=4;overflow=hidden;rotatable=0;points=[[0,0.5],[1,0.5]];portConstraint=eastwest;whiteSpace=wrap;html=1;" parent="UJVMYoUxDZK4msPOj0UV-45" vertex="1">
          <mxGeometry y="372" width="120" height="26" as="geometry" />
        </mxCell>
        <mxCell id="UJVMYoUxDZK4msPOj0UV-61" value="+ account()" style="text;strokeColor=none;fillColor=none;align=left;verticalAlign=top;spacingLeft=4;spacingRight=4;overflow=hidden;rotatable=0;points=[[0,0.5],[1,0.5]];portConstraint=eastwest;whiteSpace=wrap;html=1;" parent="UJVMYoUxDZK4msPOj0UV-45" vertex="1">
          <mxGeometry y="398" width="120" height="26" as="geometry" />
        </mxCell>
        <mxCell id="UJVMYoUxDZK4msPOj0UV-62" value="+ print()" style="text;strokeColor=none;fillColor=none;align=left;verticalAlign=top;spacingLeft=4;spacingRight=4;overflow=hidden;rotatable=0;points=[[0,0.5],[1,0.5]];portConstraint=eastwest;whiteSpace=wrap;html=1;" parent="UJVMYoUxDZK4msPOj0UV-45" vertex="1">
          <mxGeometry y="424" width="120" height="26" as="geometry" />
        </mxCell>
        <mxCell id="UJVMYoUxDZK4msPOj0UV-81" value="Student" style="swimlane;fontStyle=1;align=center;verticalAlign=top;childLayout=stackLayout;horizontal=1;startSize=26;horizontalStack=0;resizeParent=1;resizeParentMax=0;resizeLast=0;collapsible=1;marginBottom=0;whiteSpace=wrap;html=1;" parent="1" vertex="1">
          <mxGeometry x="760" y="24" width="130" height="216" as="geometry" />
        </mxCell>
        <mxCell id="UJVMYoUxDZK4msPOj0UV-82" value="+ Student: int" style="text;strokeColor=none;fillColor=none;align=left;verticalAlign=top;spacingLeft=4;spacingRight=4;overflow=hidden;rotatable=0;points=[[0,0.5],[1,0.5]];portConstraint=eastwest;whiteSpace=wrap;html=1;" parent="UJVMYoUxDZK4msPOj0UV-81" vertex="1">
          <mxGeometry y="26" width="130" height="26" as="geometry" />
        </mxCell>
        <mxCell id="UJVMYoUxDZK4msPOj0UV-85" value="+ studentno: int" style="text;strokeColor=none;fillColor=none;align=left;verticalAlign=top;spacingLeft=4;spacingRight=4;overflow=hidden;rotatable=0;points=[[0,0.5],[1,0.5]];portConstraint=eastwest;whiteSpace=wrap;html=1;" parent="UJVMYoUxDZK4msPOj0UV-81" vertex="1">
          <mxGeometry y="52" width="130" height="26" as="geometry" />
        </mxCell>
        <mxCell id="UJVMYoUxDZK4msPOj0UV-86" value="+ studentname: string" style="text;strokeColor=none;fillColor=none;align=left;verticalAlign=top;spacingLeft=4;spacingRight=4;overflow=hidden;rotatable=0;points=[[0,0.5],[1,0.5]];portConstraint=eastwest;whiteSpace=wrap;html=1;" parent="UJVMYoUxDZK4msPOj0UV-81" vertex="1">
          <mxGeometry y="78" width="130" height="26" as="geometry" />
        </mxCell>
        <mxCell id="UJVMYoUxDZK4msPOj0UV-87" value="+ sex: string" style="text;strokeColor=none;fillColor=none;align=left;verticalAlign=top;spacingLeft=4;spacingRight=4;overflow=hidden;rotatable=0;points=[[0,0.5],[1,0.5]];portConstraint=eastwest;whiteSpace=wrap;html=1;" parent="UJVMYoUxDZK4msPOj0UV-81" vertex="1">
          <mxGeometry y="104" width="130" height="26" as="geometry" />
        </mxCell>
        <mxCell id="UJVMYoUxDZK4msPOj0UV-88" value="+ department: string" style="text;strokeColor=none;fillColor=none;align=left;verticalAlign=top;spacingLeft=4;spacingRight=4;overflow=hidden;rotatable=0;points=[[0,0.5],[1,0.5]];portConstraint=eastwest;whiteSpace=wrap;html=1;" parent="UJVMYoUxDZK4msPOj0UV-81" vertex="1">
          <mxGeometry y="130" width="130" height="26" as="geometry" />
        </mxCell>
        <mxCell id="UJVMYoUxDZK4msPOj0UV-89" value="+ grade: string" style="text;strokeColor=none;fillColor=none;align=left;verticalAlign=top;spacingLeft=4;spacingRight=4;overflow=hidden;rotatable=0;points=[[0,0.5],[1,0.5]];portConstraint=eastwest;whiteSpace=wrap;html=1;" parent="UJVMYoUxDZK4msPOj0UV-81" vertex="1">
          <mxGeometry y="156" width="130" height="26" as="geometry" />
        </mxCell>
        <mxCell id="UJVMYoUxDZK4msPOj0UV-90" value="+ class: string" style="text;strokeColor=none;fillColor=none;align=left;verticalAlign=top;spacingLeft=4;spacingRight=4;overflow=hidden;rotatable=0;points=[[0,0.5],[1,0.5]];portConstraint=eastwest;whiteSpace=wrap;html=1;" parent="UJVMYoUxDZK4msPOj0UV-81" vertex="1">
          <mxGeometry y="182" width="130" height="26" as="geometry" />
        </mxCell>
        <mxCell id="UJVMYoUxDZK4msPOj0UV-83" value="" style="line;strokeWidth=1;fillColor=none;align=left;verticalAlign=middle;spacingTop=-1;spacingLeft=3;spacingRight=3;rotatable=0;labelPosition=right;points=[];portConstraint=eastwest;strokeColor=inherit;" parent="UJVMYoUxDZK4msPOj0UV-81" vertex="1">
          <mxGeometry y="208" width="130" height="8" as="geometry" />
        </mxCell>
        <mxCell id="UJVMYoUxDZK4msPOj0UV-91" value="StudentCard" style="swimlane;fontStyle=1;align=center;verticalAlign=top;childLayout=stackLayout;horizontal=1;startSize=26;horizontalStack=0;resizeParent=1;resizeParentMax=0;resizeLast=0;collapsible=1;marginBottom=0;whiteSpace=wrap;html=1;" parent="1" vertex="1">
          <mxGeometry x="760" y="390" width="130" height="164" as="geometry" />
        </mxCell>
        <mxCell id="UJVMYoUxDZK4msPOj0UV-92" value="+ cardno: int" style="text;strokeColor=none;fillColor=none;align=left;verticalAlign=top;spacingLeft=4;spacingRight=4;overflow=hidden;rotatable=0;points=[[0,0.5],[1,0.5]];portConstraint=eastwest;whiteSpace=wrap;html=1;" parent="UJVMYoUxDZK4msPOj0UV-91" vertex="1">
          <mxGeometry y="26" width="130" height="26" as="geometry" />
        </mxCell>
        <mxCell id="UJVMYoUxDZK4msPOj0UV-95" value="+ type: string" style="text;strokeColor=none;fillColor=none;align=left;verticalAlign=top;spacingLeft=4;spacingRight=4;overflow=hidden;rotatable=0;points=[[0,0.5],[1,0.5]];portConstraint=eastwest;whiteSpace=wrap;html=1;" parent="UJVMYoUxDZK4msPOj0UV-91" vertex="1">
          <mxGeometry y="52" width="130" height="26" as="geometry" />
        </mxCell>
        <mxCell id="UJVMYoUxDZK4msPOj0UV-96" value="+ lscheck: string" style="text;strokeColor=none;fillColor=none;align=left;verticalAlign=top;spacingLeft=4;spacingRight=4;overflow=hidden;rotatable=0;points=[[0,0.5],[1,0.5]];portConstraint=eastwest;whiteSpace=wrap;html=1;" parent="UJVMYoUxDZK4msPOj0UV-91" vertex="1">
          <mxGeometry y="78" width="130" height="26" as="geometry" />
        </mxCell>
        <mxCell id="UJVMYoUxDZK4msPOj0UV-97" value="+ status: string" style="text;strokeColor=none;fillColor=none;align=left;verticalAlign=top;spacingLeft=4;spacingRight=4;overflow=hidden;rotatable=0;points=[[0,0.5],[1,0.5]];portConstraint=eastwest;whiteSpace=wrap;html=1;" parent="UJVMYoUxDZK4msPOj0UV-91" vertex="1">
          <mxGeometry y="104" width="130" height="26" as="geometry" />
        </mxCell>
        <mxCell id="UJVMYoUxDZK4msPOj0UV-98" value="+ cash: int" style="text;strokeColor=none;fillColor=none;align=left;verticalAlign=top;spacingLeft=4;spacingRight=4;overflow=hidden;rotatable=0;points=[[0,0.5],[1,0.5]];portConstraint=eastwest;whiteSpace=wrap;html=1;" parent="UJVMYoUxDZK4msPOj0UV-91" vertex="1">
          <mxGeometry y="130" width="130" height="26" as="geometry" />
        </mxCell>
        <mxCell id="UJVMYoUxDZK4msPOj0UV-93" value="" style="line;strokeWidth=1;fillColor=none;align=left;verticalAlign=middle;spacingTop=-1;spacingLeft=3;spacingRight=3;rotatable=0;labelPosition=right;points=[];portConstraint=eastwest;strokeColor=inherit;" parent="UJVMYoUxDZK4msPOj0UV-91" vertex="1">
          <mxGeometry y="156" width="130" height="8" as="geometry" />
        </mxCell>
        <mxCell id="UJVMYoUxDZK4msPOj0UV-99" value="Studentrecords" style="shape=folder;fontStyle=1;spacingTop=10;tabWidth=40;tabHeight=14;tabPosition=left;html=1;whiteSpace=wrap;" parent="1" vertex="1">
          <mxGeometry x="980" y="450" width="100" height="50" as="geometry" />
        </mxCell>
        <mxCell id="UJVMYoUxDZK4msPOj0UV-101" value="" style="endArrow=block;endSize=16;endFill=0;html=1;rounded=0;exitX=1;exitY=0.269;exitDx=0;exitDy=0;exitPerimeter=0;entryX=0;entryY=0.5;entryDx=0;entryDy=0;" parent="1" source="UJVMYoUxDZK4msPOj0UV-24" target="UJVMYoUxDZK4msPOj0UV-53" edge="1">
          <mxGeometry x="-0.0011" width="160" relative="1" as="geometry">
            <mxPoint x="330" y="390" as="sourcePoint" />
            <mxPoint x="490" y="390" as="targetPoint" />
            <mxPoint as="offset" />
          </mxGeometry>
        </mxCell>
        <mxCell id="UJVMYoUxDZK4msPOj0UV-102" value="" style="endArrow=block;endSize=16;endFill=0;html=1;rounded=0;exitX=1;exitY=0.25;exitDx=0;exitDy=0;entryX=0;entryY=0.5;entryDx=0;entryDy=0;" parent="1" source="UJVMYoUxDZK4msPOj0UV-9" target="UJVMYoUxDZK4msPOj0UV-55" edge="1">
          <mxGeometry x="-0.0011" width="160" relative="1" as="geometry">
            <mxPoint x="270" y="334" as="sourcePoint" />
            <mxPoint x="360" y="428" as="targetPoint" />
            <mxPoint as="offset" />
          </mxGeometry>
        </mxCell>
        <mxCell id="UJVMYoUxDZK4msPOj0UV-103" value="" style="endArrow=block;endSize=16;endFill=0;html=1;rounded=0;exitX=1;exitY=0.5;exitDx=0;exitDy=0;entryX=0;entryY=0.5;entryDx=0;entryDy=0;" parent="1" source="UJVMYoUxDZK4msPOj0UV-34" target="UJVMYoUxDZK4msPOj0UV-57" edge="1">
          <mxGeometry x="0.0031" width="160" relative="1" as="geometry">
            <mxPoint x="324" y="600" as="sourcePoint" />
            <mxPoint x="414" y="714" as="targetPoint" />
            <mxPoint as="offset" />
          </mxGeometry>
        </mxCell>
        <mxCell id="UJVMYoUxDZK4msPOj0UV-104" value="" style="endArrow=open;endSize=12;dashed=1;html=1;rounded=0;exitX=0.5;exitY=1;exitDx=0;exitDy=0;exitPerimeter=0;entryX=0.5;entryY=0;entryDx=0;entryDy=0;" parent="1" source="UJVMYoUxDZK4msPOj0UV-41" target="UJVMYoUxDZK4msPOj0UV-45" edge="1">
          <mxGeometry width="160" relative="1" as="geometry">
            <mxPoint x="330" y="390" as="sourcePoint" />
            <mxPoint x="490" y="390" as="targetPoint" />
          </mxGeometry>
        </mxCell>
        <mxCell id="UJVMYoUxDZK4msPOj0UV-105" value="" style="endArrow=open;endFill=1;endSize=12;html=1;rounded=0;exitX=1;exitY=0.154;exitDx=0;exitDy=0;entryX=0;entryY=0.5;entryDx=0;entryDy=0;exitPerimeter=0;" parent="1" source="UJVMYoUxDZK4msPOj0UV-56" target="UJVMYoUxDZK4msPOj0UV-96" edge="1">
          <mxGeometry width="160" relative="1" as="geometry">
            <mxPoint x="330" y="390" as="sourcePoint" />
            <mxPoint x="490" y="390" as="targetPoint" />
          </mxGeometry>
        </mxCell>
        <mxCell id="UJVMYoUxDZK4msPOj0UV-106" value="operation" style="text;html=1;strokeColor=none;fillColor=none;align=center;verticalAlign=middle;whiteSpace=wrap;rounded=0;" parent="1" vertex="1">
          <mxGeometry x="670" y="450" width="60" height="30" as="geometry" />
        </mxCell>
        <mxCell id="UJVMYoUxDZK4msPOj0UV-107" value="" style="endArrow=diamondThin;endFill=1;endSize=24;html=1;rounded=0;entryX=0.5;entryY=1;entryDx=0;entryDy=0;exitX=0.5;exitY=0;exitDx=0;exitDy=0;" parent="1" source="UJVMYoUxDZK4msPOj0UV-91" target="UJVMYoUxDZK4msPOj0UV-81" edge="1">
          <mxGeometry width="160" relative="1" as="geometry">
            <mxPoint x="330" y="390" as="sourcePoint" />
            <mxPoint x="490" y="390" as="targetPoint" />
          </mxGeometry>
        </mxCell>
        <mxCell id="UJVMYoUxDZK4msPOj0UV-109" value="1" style="text;html=1;strokeColor=none;fillColor=none;align=center;verticalAlign=middle;whiteSpace=wrap;rounded=0;" parent="1" vertex="1">
          <mxGeometry x="827" y="240" width="60" height="30" as="geometry" />
        </mxCell>
        <mxCell id="UJVMYoUxDZK4msPOj0UV-110" value="1" style="text;html=1;strokeColor=none;fillColor=none;align=center;verticalAlign=middle;whiteSpace=wrap;rounded=0;" parent="1" vertex="1">
          <mxGeometry x="827" y="358" width="60" height="30" as="geometry" />
        </mxCell>
        <mxCell id="UJVMYoUxDZK4msPOj0UV-111" value="" style="endArrow=open;endSize=12;dashed=1;html=1;rounded=0;exitX=0;exitY=0;exitDx=0;exitDy=32;exitPerimeter=0;entryX=1;entryY=0.5;entryDx=0;entryDy=0;" parent="1" source="UJVMYoUxDZK4msPOj0UV-99" target="UJVMYoUxDZK4msPOj0UV-96" edge="1">
          <mxGeometry width="160" relative="1" as="geometry">
            <mxPoint x="780" y="370" as="sourcePoint" />
            <mxPoint x="780" y="470" as="targetPoint" />
          </mxGeometry>
        </mxCell>
      </root>
    </mxGraphModel>
  </diagram>
</mxfile>
